<svg width="35" height="35" viewBox="0 0 35 35" fill="none" xmlns="http://www.w3.org/2000/svg">
<rect x="1.5" y="1.5" width="32" height="32" stroke="#2A3E3C" stroke-width="3"/>
<path d="M10.7236 6.75L10.7881 6.90332L17.4736 22.8555L23.5713 6.91113L23.6328 6.75H29.25V8.15137H26.8193V26.6406H28.21C28.3304 26.6406 28.4504 26.6545 28.5693 26.6816H28.5684C28.7995 26.7317 28.9808 26.8658 29.0967 27.0723C29.2068 27.2688 29.25 27.5162 29.25 27.792V28.042H21.124V26.6406H23.5547V11.5566L17.1406 28.0908L17.0791 28.25H16.1035L16.0391 28.0977L9.89551 13.5674V26.6406H11.2871C11.4074 26.6407 11.5276 26.6545 11.6465 26.6816H11.6455C11.8764 26.7318 12.0571 26.866 12.1729 27.0723C12.2831 27.2688 12.3262 27.5161 12.3262 27.792V28.042H5.75V26.6406H8.18066V8.15137H5.75V6.75H10.7236Z" fill="#2A3E3C" stroke="#2A3E3C" stroke-width="0.5"/>
</svg>
