<svg width="16" height="24" viewBox="0 0 16 24" fill="none" xmlns="http://www.w3.org/2000/svg">
<path d="M8 5.4C8.75776 5.4 9.48449 5.71607 10.0203 6.27868C10.5561 6.84129 10.8571 7.60435 10.8571 8.4C10.8571 8.79397 10.7832 9.18407 10.6397 9.54805C10.4961 9.91203 10.2856 10.2427 10.0203 10.5213C9.755 10.7999 9.44003 11.0209 9.09338 11.1716C8.74674 11.3224 8.37521 11.4 8 11.4C7.24224 11.4 6.51551 11.0839 5.9797 10.5213C5.44388 9.95871 5.14286 9.19565 5.14286 8.4C5.14286 7.60435 5.44388 6.84129 5.9797 6.27868C6.51551 5.71607 7.24224 5.4 8 5.4ZM8 0C10.1217 0 12.1566 0.884997 13.6569 2.4603C15.1571 4.03561 16 6.17218 16 8.4C16 14.7 8 24 8 24C8 24 0 14.7 0 8.4C0 6.17218 0.842855 4.03561 2.34315 2.4603C3.84344 0.884997 5.87827 0 8 0ZM8 2.4C6.48448 2.4 5.03103 3.03214 3.95939 4.15736C2.88775 5.28258 2.28571 6.8087 2.28571 8.4C2.28571 9.6 2.28571 12 8 20.052C13.7143 12 13.7143 9.6 13.7143 8.4C13.7143 6.8087 13.1122 5.28258 12.0406 4.15736C10.969 3.03214 9.51552 2.4 8 2.4Z" fill="#2A3E3C"/>
</svg>
